# Blender v2.92.0 OBJ File: 'blendSign.blend'
# www.blender.org
mtllib blendSign.mtl
o sign:Sign_Malla
v -0.01491 -0.00574 -0.00055
v 0.01663 -0.00574 -0.00055
v -0.01491 0.79937 -0.00055
v 0.01663 0.79937 -0.00055
v -0.01491 0.79937 -0.00480
v 0.01663 0.79937 -0.00480
v -0.01491 -0.00574 -0.00480
v 0.01663 -0.00574 -0.00480
v -0.13332 0.70804 0.00493
v 0.13710 0.70804 0.00493
v -0.13332 0.77650 0.00493
v 0.13710 0.77650 0.00493
v -0.13332 0.77650 -0.00641
v 0.13710 0.77650 -0.00641
v -0.13332 0.70804 -0.00641
v 0.13710 0.70804 -0.00641
v -0.12771 0.71301 0.00493
v 0.13150 0.71301 0.00493
v 0.13150 0.77168 0.00493
v -0.12771 0.77168 0.00493
v -0.12771 0.71301 0.00068
v 0.13150 0.71301 0.00068
v 0.13150 0.77168 0.00068
v -0.12771 0.77168 0.00068
vt -0.230685 -2.465487
vt -0.011449 -2.465487
vt -0.011449 3.465485
vt -0.230685 3.465485
vt 1.256889 -2.246234
vt 1.256889 -2.465479
vt 1.301571 -2.465479
vt 1.301571 -2.246234
vt 0.253007 3.465485
vt 0.033771 3.465485
vt 0.033771 -2.465487
vt 0.253007 -2.465487
vt 0.298232 -2.465487
vt 0.342914 -2.465487
vt 0.342914 3.465485
vt 0.298232 3.465485
vt 0.386397 -2.465487
vt 0.431078 -2.465487
vt 0.431078 3.465485
vt 0.386397 3.465485
vt 0.057517 0.188571
vt 0.942482 0.188571
vt 0.942482 0.832679
vt 0.057517 0.832679
vt 0.375000 0.250000
vt 0.625000 0.250000
vt 0.625000 0.500000
vt 0.375000 0.500000
vt 0.625000 0.750000
vt 0.375000 0.750000
vt 0.625000 1.000000
vt 0.375000 1.000000
vt 0.625000 0.000000
vt 0.875000 0.000000
vt 0.875000 0.250000
vt 0.125000 0.000000
vt 0.375000 0.000000
vt 0.125000 0.250000
vt 0.625000 0.000000
vt 0.375000 0.000000
vt 0.625000 0.250000
vt 0.375000 0.250000
vt 0.625000 0.000000
vt 0.375000 0.000000
vt 0.625000 0.250000
vt 0.375000 0.250000
vn 0.0000 -0.0000 1.0000
vn 0.0000 1.0000 0.0000
vn 0.0000 0.0000 -1.0000
vn 1.0000 0.0000 0.0000
vn -1.0000 -0.0000 0.0000
vn 0.0000 -1.0000 0.0000
vn 0.0003 -0.0000 1.0000
usemtl lambert3
s 1
f 1/1/1 2/2/1 4/3/1 3/4/1
usemtl blinn1
f 3/5/2 4/6/2 6/7/2 5/8/2
usemtl lambert3
f 5/9/3 6/10/3 8/11/3 7/12/3
f 2/13/4 8/14/4 6/15/4 4/16/4
f 7/17/5 1/18/5 3/19/5 5/20/5
usemtl lambert2
f 21/21/1 22/22/1 23/23/1 24/24/1
usemtl blinn1
f 11/25/2 12/26/2 14/27/2 13/28/2
f 13/28/3 14/27/3 16/29/3 15/30/3
f 15/30/6 16/29/6 10/31/6 9/32/6
f 10/33/4 16/34/4 14/35/4 12/26/4
f 15/36/5 9/37/5 11/25/5 13/38/5
f 9/37/1 10/33/7 18/39/1 17/40/1
f 10/33/7 12/26/1 19/41/1 18/39/1
f 12/26/1 11/25/1 20/42/1 19/41/1
f 11/25/1 9/37/1 17/40/1 20/42/1
f 17/40/2 18/39/2 22/43/2 21/44/2
f 18/39/5 19/41/5 23/45/5 22/43/5
f 19/41/6 20/42/6 24/46/6 23/45/6
f 20/42/4 17/40/4 21/44/4 24/46/4
