# Blender v2.82 (sub 7) OBJ File: 'checkerboard.blend'
# www.blender.org
mtllib checkerboard.mtl
o Cube
v 2.000000 2.000000 -0.100000
v 2.000000 -2.000000 -0.100000
v 2.000000 2.000000 0.100000
v 2.000000 -2.000000 0.100000
v -2.000000 2.000000 -0.100000
v -2.000000 -2.000000 -0.100000
v -2.000000 2.000000 0.100000
v -2.000000 -2.000000 0.100000
vt 1.067593 -0.411111
vt 0.817593 -0.161111
vt 0.817593 -0.411111
vt 0.691578 0.000735
vt -0.000260 0.999607
vt 0.001592 0.000735
vt 0.197222 -0.402778
vt -0.052778 -0.152778
vt -0.052778 -0.402778
vt 0.384479 1.223037
vt 0.008716 1.598800
vt 0.008716 1.223037
vt 0.940836 1.268665
vt 0.690836 1.518665
vt 0.690836 1.268665
vt 0.691638 0.000000
vt 0.002778 1.000000
vt 0.002778 0.000000
vt 1.067593 -0.161111
vt 0.689726 0.999607
vt 0.197222 -0.152778
vt 0.384479 1.598800
vt 0.940836 1.518665
vt 0.691638 1.000000
vn 0.0000 1.0000 0.0000
vn 0.0000 0.0000 1.0000
vn -1.0000 0.0000 0.0000
vn 0.0000 -1.0000 0.0000
vn 1.0000 0.0000 0.0000
vn 0.0000 0.0000 -1.0000
g Cube_Cube_Material
usemtl Material
s off
f 5/1/1 3/2/1 1/3/1
f 3/4/2 8/5/2 4/6/2
f 7/7/3 6/8/3 8/9/3
f 2/10/4 8/11/4 6/12/4
f 1/13/5 4/14/5 2/15/5
f 5/16/6 2/17/6 6/18/6
f 5/1/1 7/19/1 3/2/1
f 3/4/2 7/20/2 8/5/2
f 7/7/3 5/21/3 6/8/3
f 2/10/4 4/22/4 8/11/4
f 1/13/5 3/23/5 4/14/5
f 5/16/6 1/24/6 2/17/6
